<svg xmlns="http://www.w3.org/2000/svg" xmlns:xlink="http://www.w3.org/1999/xlink" width="24" height="24" viewBox="0 0 24 24">
  <defs>
    <style>
      .cls-1 {
        fill: #00cfae;
        fill-rule: evenodd;
        filter: url(#filter);
      }
    </style>
    <filter id="filter" x="85" y="1497" width="24" height="24" filterUnits="userSpaceOnUse">
      <feFlood result="flood" flood-color="#fff"/>
      <feComposite result="composite" operator="in" in2="SourceGraphic"/>
      <feBlend result="blend" in2="SourceGraphic"/>
    </filter>
  </defs>
  <path id="_-e-White" data-name="-e-White" class="cls-1" d="M107.676,1497H86.322A1.321,1.321,0,0,0,85,1498.32v21.36a1.321,1.321,0,0,0,1.322,1.32h11.5v-9.3H94.68v-3.61H97.82v-2.68c0-3.1,1.893-4.78,4.658-4.78a24.331,24.331,0,0,1,2.794.14v3.24h-1.919c-1.5,0-1.784.71-1.784,1.76v2.32h3.577l-0.466,3.61h-3.111v9.3h6.107a1.323,1.323,0,0,0,1.325-1.32v-21.36A1.323,1.323,0,0,0,107.676,1497Z" transform="translate(-85 -1497)"/>
</svg>
